<svg version="1" xmlns="http://www.w3.org/2000/svg" width="346.667" height="346.667" viewBox="0 0 260.000000 260.000000"><path d="M82 36.1c-7.6 1.3-15 5.1-17.9 9.3-4.9 7.4-5.4 10.5-6 37.6-.6 24.6-.7 25.7-3.1 30.5-3.4 6.8-8.6 9.4-20.4 10.2l-8.6.6v14.4l8.3.6c13.5.9 19.1 4.2 21.9 13 .6 1.7 1.4 14.4 1.8 28.2.7 26.5 1.3 29.8 6.1 37.1 4.6 6.8 16.5 10.4 34.2 10.4h8.7v-14.7l-8.9-.5c-11.2-.7-15.8-2.7-18.6-8.3-1.8-3.5-2-6.8-2.6-29-.4-15.2-1.1-26.6-1.9-29-1.5-4.9-8.4-11.8-13.5-13.5l-3.7-1.2 4.9-2.3c5.7-2.7 9.6-6.5 11.9-12 1.5-3.3 1.9-8.5 2.4-29.5.5-22.6.8-26 2.5-29.5 2.8-5.6 7.4-7.6 18.6-8.3l8.9-.5V35l-9.7.1c-5.4.1-12.3.5-15.3 1zM159 42.4v7.3l9.5.6c11.3.6 15.1 2.4 18 8.2 1.7 3.6 2 6.8 2.5 29.5.5 21.2.9 26.2 2.4 29.5 2.3 5.5 6.2 9.3 11.9 12l4.9 2.3-3.5 1.1c-5.4 1.8-11.3 7.5-13.3 12.8-1.4 3.9-1.8 9.8-2.4 30.3-.5 21.9-.9 26-2.5 29.2-2.5 5.1-6.7 6.9-18.1 7.5l-9.4.6V228h8.8c18.9 0 30.2-3.8 34.9-11.7 4.3-7.3 5.3-13.9 5.3-35.3 0-20.4 1.2-29.6 4.4-34.5 2.6-4 9.3-6.5 19.1-7.2l8.5-.6v-14.4l-8.6-.6c-11.8-.8-17-3.4-20.4-10.2-2.4-4.8-2.5-6-3.1-30.5-.6-26.4-1.1-29.2-5.4-36.5C198 38.8 186.6 35 167.8 35H159v7.4z"/></svg>